<mxfile host="app.diagrams.net" agent="Mozilla/5.0 (Windows NT 10.0; Win64; x64) AppleWebKit/537.36 (KHTML, like Gecko) Chrome/131.0.0.0 Safari/537.36 Edg/131.0.0.0" version="25.0.3">
  <diagram id="C5RBs43oDa-KdzZeNtuy" name="Page-1">
    <mxGraphModel dx="1894" dy="1728" grid="0" gridSize="10" guides="1" tooltips="1" connect="1" arrows="1" fold="1" page="0" pageScale="1" pageWidth="827" pageHeight="1169" math="0" shadow="0">
      <root>
        <mxCell id="WIyWlLk6GJQsqaUBKTNV-0" />
        <mxCell id="WIyWlLk6GJQsqaUBKTNV-1" parent="WIyWlLk6GJQsqaUBKTNV-0" />
        <mxCell id="EfmrkU7l-7s9HYYSzsi7-10" value="" style="edgeStyle=orthogonalEdgeStyle;rounded=0;orthogonalLoop=1;jettySize=auto;html=1;" edge="1" parent="WIyWlLk6GJQsqaUBKTNV-1" source="XmNt72EtIXzPdljNJI39-56" target="EfmrkU7l-7s9HYYSzsi7-9">
          <mxGeometry relative="1" as="geometry" />
        </mxCell>
        <mxCell id="XmNt72EtIXzPdljNJI39-56" value="Начало" style="ellipse;whiteSpace=wrap;html=1;" parent="WIyWlLk6GJQsqaUBKTNV-1" vertex="1">
          <mxGeometry x="161" y="-19" width="138" height="66" as="geometry" />
        </mxCell>
        <mxCell id="XmNt72EtIXzPdljNJI39-57" value="Конец" style="ellipse;whiteSpace=wrap;html=1;" parent="WIyWlLk6GJQsqaUBKTNV-1" vertex="1">
          <mxGeometry x="160.69" y="1149" width="138" height="66" as="geometry" />
        </mxCell>
        <mxCell id="EfmrkU7l-7s9HYYSzsi7-15" value="" style="edgeStyle=orthogonalEdgeStyle;rounded=0;orthogonalLoop=1;jettySize=auto;html=1;" edge="1" parent="WIyWlLk6GJQsqaUBKTNV-1" source="EfmrkU7l-7s9HYYSzsi7-0" target="EfmrkU7l-7s9HYYSzsi7-14">
          <mxGeometry relative="1" as="geometry" />
        </mxCell>
        <mxCell id="EfmrkU7l-7s9HYYSzsi7-19" value="" style="edgeStyle=orthogonalEdgeStyle;rounded=0;orthogonalLoop=1;jettySize=auto;html=1;" edge="1" parent="WIyWlLk6GJQsqaUBKTNV-1" source="EfmrkU7l-7s9HYYSzsi7-0" target="EfmrkU7l-7s9HYYSzsi7-18">
          <mxGeometry relative="1" as="geometry" />
        </mxCell>
        <mxCell id="EfmrkU7l-7s9HYYSzsi7-0" value="email валидный" style="rhombus;whiteSpace=wrap;html=1;shadow=0;fontFamily=Helvetica;fontSize=12;align=center;strokeWidth=1;spacing=6;spacingTop=-4;" vertex="1" parent="WIyWlLk6GJQsqaUBKTNV-1">
          <mxGeometry x="156.38" y="191" width="147.25" height="76" as="geometry" />
        </mxCell>
        <mxCell id="EfmrkU7l-7s9HYYSzsi7-2" value="нет" style="text;html=1;align=center;verticalAlign=middle;resizable=0;points=[];autosize=1;strokeColor=none;fillColor=none;" vertex="1" parent="WIyWlLk6GJQsqaUBKTNV-1">
          <mxGeometry x="325" y="203" width="36" height="26" as="geometry" />
        </mxCell>
        <mxCell id="EfmrkU7l-7s9HYYSzsi7-11" value="" style="edgeStyle=orthogonalEdgeStyle;rounded=0;orthogonalLoop=1;jettySize=auto;html=1;" edge="1" parent="WIyWlLk6GJQsqaUBKTNV-1" source="EfmrkU7l-7s9HYYSzsi7-9" target="EfmrkU7l-7s9HYYSzsi7-0">
          <mxGeometry relative="1" as="geometry" />
        </mxCell>
        <mxCell id="EfmrkU7l-7s9HYYSzsi7-9" value="&#xa;&lt;span style=&quot;color: rgb(0, 0, 0); font-family: Helvetica; font-size: 12px; font-style: normal; font-variant-ligatures: normal; font-variant-caps: normal; font-weight: 400; letter-spacing: normal; orphans: 2; text-align: center; text-indent: 0px; text-transform: none; widows: 2; word-spacing: 0px; -webkit-text-stroke-width: 0px; white-space: normal; background-color: rgb(255, 255, 255); text-decoration-thickness: initial; text-decoration-style: initial; text-decoration-color: initial; display: inline !important; float: none;&quot;&gt;Ввод email пользователя&lt;/span&gt;&#xa;&#xa;" style="shape=parallelogram;perimeter=parallelogramPerimeter;whiteSpace=wrap;html=1;fixedSize=1;" vertex="1" parent="WIyWlLk6GJQsqaUBKTNV-1">
          <mxGeometry x="137.51" y="89" width="184.99" height="60" as="geometry" />
        </mxCell>
        <mxCell id="EfmrkU7l-7s9HYYSzsi7-17" value="" style="edgeStyle=orthogonalEdgeStyle;rounded=0;orthogonalLoop=1;jettySize=auto;html=1;" edge="1" parent="WIyWlLk6GJQsqaUBKTNV-1" source="EfmrkU7l-7s9HYYSzsi7-14" target="EfmrkU7l-7s9HYYSzsi7-16">
          <mxGeometry relative="1" as="geometry" />
        </mxCell>
        <mxCell id="EfmrkU7l-7s9HYYSzsi7-14" value="Отправка запроса на сервер" style="rounded=0;whiteSpace=wrap;html=1;fontSize=12;glass=0;strokeWidth=1;shadow=0;" vertex="1" parent="WIyWlLk6GJQsqaUBKTNV-1">
          <mxGeometry x="158.5" y="321" width="143" height="44" as="geometry" />
        </mxCell>
        <mxCell id="EfmrkU7l-7s9HYYSzsi7-23" value="" style="edgeStyle=orthogonalEdgeStyle;rounded=0;orthogonalLoop=1;jettySize=auto;html=1;" edge="1" parent="WIyWlLk6GJQsqaUBKTNV-1" source="EfmrkU7l-7s9HYYSzsi7-16" target="EfmrkU7l-7s9HYYSzsi7-22">
          <mxGeometry relative="1" as="geometry" />
        </mxCell>
        <mxCell id="EfmrkU7l-7s9HYYSzsi7-26" value="" style="edgeStyle=orthogonalEdgeStyle;rounded=0;orthogonalLoop=1;jettySize=auto;html=1;" edge="1" parent="WIyWlLk6GJQsqaUBKTNV-1" source="EfmrkU7l-7s9HYYSzsi7-16" target="EfmrkU7l-7s9HYYSzsi7-25">
          <mxGeometry relative="1" as="geometry" />
        </mxCell>
        <mxCell id="EfmrkU7l-7s9HYYSzsi7-16" value="Запрос получен сервером" style="rhombus;whiteSpace=wrap;html=1;shadow=0;fontFamily=Helvetica;fontSize=12;align=center;strokeWidth=1;spacing=6;spacingTop=-4;" vertex="1" parent="WIyWlLk6GJQsqaUBKTNV-1">
          <mxGeometry x="156.38" y="406" width="147.25" height="76" as="geometry" />
        </mxCell>
        <mxCell id="EfmrkU7l-7s9HYYSzsi7-20" style="edgeStyle=orthogonalEdgeStyle;rounded=0;orthogonalLoop=1;jettySize=auto;html=1;entryX=1;entryY=0.5;entryDx=0;entryDy=0;" edge="1" parent="WIyWlLk6GJQsqaUBKTNV-1" source="EfmrkU7l-7s9HYYSzsi7-18" target="EfmrkU7l-7s9HYYSzsi7-9">
          <mxGeometry relative="1" as="geometry">
            <Array as="points">
              <mxPoint x="472" y="119" />
            </Array>
          </mxGeometry>
        </mxCell>
        <mxCell id="EfmrkU7l-7s9HYYSzsi7-18" value="&#xa;&lt;span style=&quot;color: rgb(0, 0, 0); font-family: Helvetica; font-size: 12px; font-style: normal; font-variant-ligatures: normal; font-variant-caps: normal; font-weight: 400; letter-spacing: normal; orphans: 2; text-align: center; text-indent: 0px; text-transform: none; widows: 2; word-spacing: 0px; -webkit-text-stroke-width: 0px; white-space: normal; background-color: rgb(255, 255, 255); text-decoration-thickness: initial; text-decoration-style: initial; text-decoration-color: initial; display: inline !important; float: none;&quot;&gt;Некорректный email&lt;/span&gt;&#xa;&#xa;" style="shape=parallelogram;perimeter=parallelogramPerimeter;whiteSpace=wrap;html=1;fixedSize=1;" vertex="1" parent="WIyWlLk6GJQsqaUBKTNV-1">
          <mxGeometry x="390" y="199" width="162" height="60" as="geometry" />
        </mxCell>
        <mxCell id="EfmrkU7l-7s9HYYSzsi7-22" value="Ошибка получения&amp;nbsp;&lt;div&gt;запроса&lt;/div&gt;" style="shape=parallelogram;perimeter=parallelogramPerimeter;whiteSpace=wrap;html=1;fixedSize=1;" vertex="1" parent="WIyWlLk6GJQsqaUBKTNV-1">
          <mxGeometry x="371" y="414" width="162" height="60" as="geometry" />
        </mxCell>
        <mxCell id="EfmrkU7l-7s9HYYSzsi7-24" value="нет" style="text;html=1;align=center;verticalAlign=middle;resizable=0;points=[];autosize=1;strokeColor=none;fillColor=none;" vertex="1" parent="WIyWlLk6GJQsqaUBKTNV-1">
          <mxGeometry x="319" y="419" width="36" height="26" as="geometry" />
        </mxCell>
        <mxCell id="EfmrkU7l-7s9HYYSzsi7-31" value="" style="edgeStyle=orthogonalEdgeStyle;rounded=0;orthogonalLoop=1;jettySize=auto;html=1;" edge="1" parent="WIyWlLk6GJQsqaUBKTNV-1" source="EfmrkU7l-7s9HYYSzsi7-25" target="EfmrkU7l-7s9HYYSzsi7-30">
          <mxGeometry relative="1" as="geometry" />
        </mxCell>
        <mxCell id="EfmrkU7l-7s9HYYSzsi7-37" value="" style="edgeStyle=orthogonalEdgeStyle;rounded=0;orthogonalLoop=1;jettySize=auto;html=1;" edge="1" parent="WIyWlLk6GJQsqaUBKTNV-1" source="EfmrkU7l-7s9HYYSzsi7-25" target="EfmrkU7l-7s9HYYSzsi7-36">
          <mxGeometry relative="1" as="geometry" />
        </mxCell>
        <mxCell id="EfmrkU7l-7s9HYYSzsi7-25" value="Поиск пользователя по email в БД" style="shape=process;whiteSpace=wrap;html=1;backgroundOutline=1;" vertex="1" parent="WIyWlLk6GJQsqaUBKTNV-1">
          <mxGeometry x="149.51" y="556" width="161" height="60" as="geometry" />
        </mxCell>
        <mxCell id="EfmrkU7l-7s9HYYSzsi7-27" value="Да" style="text;html=1;align=center;verticalAlign=middle;resizable=0;points=[];autosize=1;strokeColor=none;fillColor=none;" vertex="1" parent="WIyWlLk6GJQsqaUBKTNV-1">
          <mxGeometry x="233" y="494" width="33" height="26" as="geometry" />
        </mxCell>
        <mxCell id="EfmrkU7l-7s9HYYSzsi7-28" value="Да" style="text;html=1;align=center;verticalAlign=middle;resizable=0;points=[];autosize=1;strokeColor=none;fillColor=none;" vertex="1" parent="WIyWlLk6GJQsqaUBKTNV-1">
          <mxGeometry x="233" y="275" width="33" height="26" as="geometry" />
        </mxCell>
        <mxCell id="EfmrkU7l-7s9HYYSzsi7-30" value="Пользователь с таким&amp;nbsp;&lt;div&gt;email не найден&lt;/div&gt;" style="shape=parallelogram;perimeter=parallelogramPerimeter;whiteSpace=wrap;html=1;fixedSize=1;" vertex="1" parent="WIyWlLk6GJQsqaUBKTNV-1">
          <mxGeometry x="361" y="556" width="162" height="60" as="geometry" />
        </mxCell>
        <mxCell id="EfmrkU7l-7s9HYYSzsi7-32" value="нет" style="text;html=1;align=center;verticalAlign=middle;resizable=0;points=[];autosize=1;strokeColor=none;fillColor=none;" vertex="1" parent="WIyWlLk6GJQsqaUBKTNV-1">
          <mxGeometry x="319" y="558" width="36" height="26" as="geometry" />
        </mxCell>
        <mxCell id="EfmrkU7l-7s9HYYSzsi7-39" value="" style="edgeStyle=orthogonalEdgeStyle;rounded=0;orthogonalLoop=1;jettySize=auto;html=1;" edge="1" parent="WIyWlLk6GJQsqaUBKTNV-1" source="EfmrkU7l-7s9HYYSzsi7-36" target="EfmrkU7l-7s9HYYSzsi7-38">
          <mxGeometry relative="1" as="geometry" />
        </mxCell>
        <mxCell id="EfmrkU7l-7s9HYYSzsi7-44" value="" style="edgeStyle=orthogonalEdgeStyle;rounded=0;orthogonalLoop=1;jettySize=auto;html=1;" edge="1" parent="WIyWlLk6GJQsqaUBKTNV-1" source="EfmrkU7l-7s9HYYSzsi7-36" target="EfmrkU7l-7s9HYYSzsi7-43">
          <mxGeometry relative="1" as="geometry" />
        </mxCell>
        <mxCell id="EfmrkU7l-7s9HYYSzsi7-36" value="Роль пользователя&lt;div&gt;равна USER&lt;/div&gt;" style="rhombus;whiteSpace=wrap;html=1;shadow=0;fontFamily=Helvetica;fontSize=12;align=center;strokeWidth=1;spacing=6;spacingTop=-4;" vertex="1" parent="WIyWlLk6GJQsqaUBKTNV-1">
          <mxGeometry x="134.38" y="678" width="190.62" height="94" as="geometry" />
        </mxCell>
        <mxCell id="EfmrkU7l-7s9HYYSzsi7-38" value="Пользователя нельзя&lt;div&gt;назначить автором&lt;/div&gt;" style="shape=parallelogram;perimeter=parallelogramPerimeter;whiteSpace=wrap;html=1;fixedSize=1;" vertex="1" parent="WIyWlLk6GJQsqaUBKTNV-1">
          <mxGeometry x="365" y="695" width="155" height="60" as="geometry" />
        </mxCell>
        <mxCell id="EfmrkU7l-7s9HYYSzsi7-40" value="нет" style="text;html=1;align=center;verticalAlign=middle;resizable=0;points=[];autosize=1;strokeColor=none;fillColor=none;" vertex="1" parent="WIyWlLk6GJQsqaUBKTNV-1">
          <mxGeometry x="325" y="696" width="36" height="26" as="geometry" />
        </mxCell>
        <mxCell id="EfmrkU7l-7s9HYYSzsi7-48" value="" style="edgeStyle=orthogonalEdgeStyle;rounded=0;orthogonalLoop=1;jettySize=auto;html=1;" edge="1" parent="WIyWlLk6GJQsqaUBKTNV-1" source="EfmrkU7l-7s9HYYSzsi7-43" target="EfmrkU7l-7s9HYYSzsi7-46">
          <mxGeometry relative="1" as="geometry" />
        </mxCell>
        <mxCell id="EfmrkU7l-7s9HYYSzsi7-43" value="Смена роли пользователя на автора в БД" style="shape=process;whiteSpace=wrap;html=1;backgroundOutline=1;" vertex="1" parent="WIyWlLk6GJQsqaUBKTNV-1">
          <mxGeometry x="149.51" y="820" width="161" height="60" as="geometry" />
        </mxCell>
        <mxCell id="EfmrkU7l-7s9HYYSzsi7-50" value="" style="edgeStyle=orthogonalEdgeStyle;rounded=0;orthogonalLoop=1;jettySize=auto;html=1;" edge="1" parent="WIyWlLk6GJQsqaUBKTNV-1" source="EfmrkU7l-7s9HYYSzsi7-46" target="EfmrkU7l-7s9HYYSzsi7-49">
          <mxGeometry relative="1" as="geometry" />
        </mxCell>
        <mxCell id="EfmrkU7l-7s9HYYSzsi7-46" value="Отправка ответа на клиент" style="rounded=0;whiteSpace=wrap;html=1;fontSize=12;glass=0;strokeWidth=1;shadow=0;" vertex="1" parent="WIyWlLk6GJQsqaUBKTNV-1">
          <mxGeometry x="158.51" y="937" width="143" height="44" as="geometry" />
        </mxCell>
        <mxCell id="EfmrkU7l-7s9HYYSzsi7-51" value="" style="edgeStyle=orthogonalEdgeStyle;rounded=0;orthogonalLoop=1;jettySize=auto;html=1;" edge="1" parent="WIyWlLk6GJQsqaUBKTNV-1" source="EfmrkU7l-7s9HYYSzsi7-49" target="XmNt72EtIXzPdljNJI39-57">
          <mxGeometry relative="1" as="geometry" />
        </mxCell>
        <mxCell id="EfmrkU7l-7s9HYYSzsi7-49" value="Пользователь назначен автором" style="shape=parallelogram;perimeter=parallelogramPerimeter;whiteSpace=wrap;html=1;fixedSize=1;" vertex="1" parent="WIyWlLk6GJQsqaUBKTNV-1">
          <mxGeometry x="149.51" y="1028" width="162" height="60" as="geometry" />
        </mxCell>
      </root>
    </mxGraphModel>
  </diagram>
</mxfile>
